# xmcd
#
# Track frame offsets:
#	150
#	17220
#	32913
#	48418
#	65110
#	80599
#	94300
#	109253
#	122668
#	139516
#	156538
#	173363
#	187232
#	203635
#	215928
#	231700
#	247932
#
# Disc length: 3550 seconds
#
# Revision: 0
# Processed by: cddbd v1.5.2PL0 Copyright (c) Steve Scherf et al.
# Submitted via: EasyCDDAExtractor 2010.6.0.0
#
DISCID=020ddc11
DTITLE=Various Artist - My Country Vol.3 CD2
DYEAR=2011
DGENRE=Country
TTITLE0=Keith Urban - Somebody like you
TTITLE1=Easton Corbin - Roll with it
TTITLE2=Blake Shelton - All about tonight
TTITLE3=Martina McBride - Wrong baby wrong baby wrong
TTITLE4=Rodney Atkins - Farmer's daughter
TTITLE5=Brooks and Dunn - Honky tonk stomp
TTITLE6=Jana Kramer - I won't give up SJ
TTITLE7=Carrie Underwood - Undo it
TTITLE8=Jason Jones - Unlikely angel
TTITLE9=Kellie Pickler - Best days of your life
TTITLE10=Ty Stone - American style
TTITLE11=Tracy Adkins - Marry for money
TTITLE12=Brett Eldredge - Raymond
TTITLE13=The Janedear Girls - Wildflower
TTITLE14=Darius Rucker - History in the making
TTITLE15=Ashley Gearing - What you think about us
TTITLE16=Craig Morgan - This ain't nothing
EXTD=
EXTT0=
EXTT1=
EXTT2=
EXTT3=
EXTT4=
EXTT5=
EXTT6=
EXTT7=
EXTT8=
EXTT9=
EXTT10=
EXTT11=
EXTT12=
EXTT13=
EXTT14=
EXTT15=
EXTT16=
PLAYORDER=
